# xmcd CD database file
#
# Track frame offsets:
#	150
#	23778
#	41583
#	57321
#	81914
#	98211
#	117950
#	140112
#	161332
#	176217
#	195143
#	209873
#
# Disc length: 3075 seconds
#
# Revision: 1
# Processed by: cddbd v1.5.2PL0 Copyright (c) Steve Scherf et al.
# Submitted via: CDex 1.70beta2
#
DISCID=a90c010c
DTITLE=Den Euprasert - MASTERPIECE
DYEAR=2008
DGENRE=Jazz
TTITLE0=ให้เธอ
TTITLE1=อยากจะลืม
TTITLE2=รักเธอเสมอ
TTITLE3=เสี่ยวรำพึง
TTITLE4=ยินยอม
TTITLE5=ทั้งทั้งที่รู้
TTITLE6=ลงเอย
TTITLE7=อยากได้ยินว่ารักกัน
TTITLE8=คงเดิม
TTITLE9=เธอปันใจ
TTITLE10=อยากให้อยู่ด้วยไหม?
TTITLE11=ลาก่อน
EXTD=YEAR: 2008
EXTT0=
EXTT1=
EXTT2=
EXTT3=
EXTT4=
EXTT5=
EXTT6=
EXTT7=
EXTT8=
EXTT9=
EXTT10=
EXTT11=
PLAYORDER=
